<svg xmlns="http://www.w3.org/2000/svg" height="40" viewBox="0 -960 960 960" width="40"><path d="M482.308-151.667q-137.417 0-232.875-95.458Q153.974-342.583 153.974-480q0-125.622 81.356-217.311Q316.686-789 437.693-805.154q-2.58 0-2.329-.013.252-.013 6.252-.284-13.282 30.271-19.795 64.259-6.513 33.987-6.513 65.526 0 108.999 77.5 185.833Q570.308-413 679.641-413q32.66 0 63.253-4.859 30.593-4.859 63.696-20.834-.872-.153-.385 2.347t.487.961q-15.384 121.007-107.24 202.363-91.856 81.355-217.144 81.355Zm0-51.179q83.974 0 153.295-46.833 69.321-46.834 99.757-119.706-12.616 3.282-27.317 5.423t-27.402 2.141q-131.524 0-224.018-91.715t-92.494-222.13q0-15.308 1.73-29.488 1.731-14.18 6.834-28.872-75.821 33.205-121.68 102.287-45.86 69.083-45.86 151.739 0 115.64 80.758 196.397 80.757 80.757 196.397 80.757Zm-12.051-265.257Z"/></svg>