<svg xmlns="http://www.w3.org/2000/svg" height="40" viewBox="0 -960 960 960" width="40"><path d="M482.308-151.667q-137 0-232.667-95.666Q153.974-343 153.974-480q0-125.205 81.564-217.103Q317.103-789 437.693-805.154q-2.385 0-2.064-.013.32-.013 5.987-.218-18.616 35.539-22.462 70.359-3.846 34.821-3.846 59.36 0 103.666 74.666 183.166Q564.641-413 679.641-413q35.436 0 65.808-6.026 30.372-6.026 61.141-19.667-.205 3.513-.051 6.013.153 2.5.153-2.705-15.384 120.59-107.282 202.154-91.897 81.564-217.102 81.564Z"/></svg>